<?xml version="1.0" standalone="no"?>
<!DOCTYPE svg PUBLIC "-//W3C//DTD SVG 20010904//EN"
 "http://www.w3.org/TR/2001/REC-SVG-20010904/DTD/svg10.dtd">
<svg version="1.0" xmlns="http://www.w3.org/2000/svg"
 width="3333.000000pt" height="1168.000000pt" viewBox="0 0 3333.000000 1168.000000"
 preserveAspectRatio="xMidYMid meet">
<metadata>
Created by potrace 1.16, written by Peter Selinger 2001-2019
</metadata>
<g transform="translate(0.000000,1168.000000) scale(0.100000,-0.100000)"
fill="#000000" stroke="none">
<path d="M7095 8870 c-8 -13 -225 -650 -225 -661 0 -5 414 -8 1008 -7 l1007 3
107 325 c59 179 108 331 108 338 0 9 -206 12 -999 12 -635 0 -1002 -4 -1006
-10z"/>
<path d="M14544 8814 c-95 -74 -121 -84 -221 -84 -219 0 -369 -38 -505 -126
-45 -30 -85 -54 -88 -54 -3 0 -21 16 -40 35 l-34 35 -28 -43 c-49 -71 -104
-187 -146 -307 -143 -405 -249 -730 -239 -730 7 0 41 27 75 60 82 78 96 79
108 4 12 -79 -5 -74 278 -74 215 0 255 -2 266 -15 31 -37 -32 -298 -139 -581
-104 -274 -172 -420 -221 -471 -20 -23 -25 -23 -260 -23 -131 0 -246 -3 -255
-6 -8 -4 -36 -35 -62 -71 -28 -39 -51 -63 -61 -61 -16 3 -29 38 -38 102 -6 44
-20 76 -34 76 -10 0 -37 -86 -125 -402 -69 -247 -71 -261 -60 -380 7 -73 7
-77 -18 -102 -31 -31 -60 -33 -87 -6 -25 25 -25 42 -1 105 18 48 18 60 5 265
-22 346 -28 427 -141 1673 l-107 1187 -50 -49 c-76 -73 -74 -72 -233 -60 -170
14 -602 5 -727 -15 -104 -17 -121 -13 -167 43 l-34 41 -211 -617 c-117 -340
-210 -619 -209 -621 7 -8 44 19 93 67 71 69 86 68 98 -5 12 -78 -1 -74 247
-74 160 0 226 -3 235 -12 18 -18 14 -138 -8 -248 -56 -276 -235 -761 -298
-811 -23 -18 -43 -19 -264 -19 -274 0 -272 0 -329 -83 -45 -66 -79 -107 -89
-107 -8 0 -16 22 -37 105 -4 17 -7 37 -7 45 -1 8 -7 15 -15 15 -10 0 -115
-297 -337 -945 -178 -520 -323 -952 -324 -961 0 -13 18 -20 83 -30 111 -19
624 -19 762 -1 l100 14 277 816 c358 1052 476 1426 633 2002 36 135 74 270 83
300 l16 55 13 -270 c7 -148 19 -342 27 -430 27 -289 225 -2369 231 -2421 l6
-51 97 -13 c53 -6 234 -14 402 -17 309 -5 505 7 664 40 l58 12 734 2150 c404
1182 734 2157 734 2167 0 32 -17 28 -76 -18z m-2193 -1307 c32 -44 89 -186
115 -283 22 -84 26 -122 27 -254 1 -85 0 -182 -2 -215 -5 -85 -37 -258 -53
-291 l-13 -27 -245 2 c-286 2 -264 -7 -299 124 -84 316 -120 660 -87 828 10
46 23 95 29 109 l12 25 240 5 c132 3 245 4 250 2 6 -2 17 -13 26 -25z"/>
<path d="M10602 8795 c-111 -79 -87 -75 -434 -79 -172 -2 -341 -7 -376 -11
l-63 -8 -43 47 -44 46 -12 -32 c-43 -121 -410 -1202 -410 -1209 0 -17 16 -9
65 37 77 69 92 79 110 64 8 -7 15 -28 15 -47 0 -19 5 -43 10 -54 10 -18 24
-19 304 -19 251 0 295 -2 306 -15 31 -37 -32 -298 -139 -581 -104 -274 -172
-420 -221 -471 -21 -23 -23 -23 -312 -23 l-291 0 -40 -42 c-21 -24 -50 -59
-63 -78 -62 -94 -76 -93 -89 1 -7 54 -20 92 -32 96 -19 7 -134 -352 -173 -541
-51 -252 -66 -568 -34 -723 44 -214 145 -369 332 -510 94 -71 227 -142 240
-128 10 12 1472 4294 1472 4313 0 19 -10 15 -78 -33z"/>
<path d="M17801 8770 c-118 -94 33 -85 -1361 -88 -679 -1 -1244 0 -1256 3 -12
2 -37 25 -55 49 l-35 44 -211 -616 c-116 -340 -209 -618 -208 -620 7 -8 44 19
93 67 71 69 86 68 98 -5 12 -79 -9 -73 316 -76 258 -3 292 -5 301 -20 8 -11 6
-45 -7 -120 -31 -174 -31 -174 -2 -202 16 -17 36 -26 56 -26 39 0 31 -19 182
438 l120 362 611 0 c773 0 861 7 1011 80 167 80 271 224 350 483 35 116 72
285 63 293 -2 2 -32 -19 -66 -46z"/>
<path d="M27932 8760 c-118 -99 25 -90 -1393 -90 l-1246 0 -43 46 c-23 25 -43
44 -45 42 -3 -3 -415 -1208 -415 -1214 0 -15 30 5 85 56 35 33 71 60 80 60 8
0 17 -12 21 -27 3 -16 10 -45 15 -65 l10 -38 283 0 c242 0 285 -2 296 -15 16
-19 8 -115 -15 -205 -18 -71 -13 -113 18 -135 26 -18 71 -20 85 -2 6 7 69 188
140 402 l130 390 865 3 864 2 48 72 c113 169 195 360 250 577 26 104 40 191
32 191 -3 0 -32 -23 -65 -50z"/>
<path d="M28357 8767 c-42 -119 -417 -1220 -417 -1223 0 -15 30 4 85 56 35 33
71 60 80 60 8 0 17 -12 21 -27 3 -16 10 -45 15 -65 l10 -38 287 0 c211 0 291
-3 300 -12 36 -36 -7 -242 -112 -532 -104 -287 -198 -491 -244 -526 -23 -19
-41 -20 -303 -20 -152 0 -285 -3 -293 -6 -9 -4 -46 -46 -82 -95 -37 -49 -72
-89 -79 -89 -8 0 -17 23 -23 58 -12 66 -28 112 -39 112 -10 0 -489 -1406 -504
-1480 -7 -30 -9 -93 -7 -140 8 -135 60 -222 165 -277 112 -59 93 -58 993 -58
761 0 832 1 910 18 230 50 447 190 560 363 50 77 121 231 176 382 l34 92 -24
0 c-12 0 -48 -18 -80 -40 -78 -55 -103 -66 -161 -73 -27 -4 -347 -7 -710 -8
-715 -3 -695 -4 -713 51 -6 15 -4 42 3 70 7 25 238 704 513 1510 275 806 508
1504 518 1550 21 107 16 236 -14 303 -12 26 -26 47 -33 47 -6 0 -27 -13 -46
-30 -40 -36 -57 -37 -143 -8 -58 19 -90 22 -305 24 l-240 2 -42 46 -41 46 -15
-43z"/>
<path d="M31197 8767 c-42 -119 -417 -1220 -417 -1223 0 -15 30 4 85 56 35 33
71 60 80 60 8 0 17 -12 21 -27 3 -16 10 -45 15 -65 l10 -38 287 0 c211 0 291
-3 300 -12 36 -36 -7 -242 -112 -532 -104 -287 -198 -491 -244 -526 -23 -19
-41 -20 -303 -20 -152 0 -285 -3 -293 -6 -9 -4 -46 -46 -82 -95 -37 -49 -72
-89 -79 -89 -8 0 -17 23 -23 58 -12 66 -28 112 -39 112 -10 0 -489 -1406 -504
-1480 -7 -30 -9 -93 -7 -140 8 -135 60 -222 165 -277 112 -59 93 -58 993 -58
761 0 832 1 910 18 230 50 447 190 560 363 50 76 121 229 175 379 18 50 36 98
40 108 12 30 -13 19 -89 -37 -93 -69 -120 -82 -181 -89 -27 -4 -347 -7 -710
-8 -715 -3 -695 -4 -713 51 -6 15 -4 42 3 70 7 25 238 704 513 1510 275 806
508 1504 518 1550 21 107 16 236 -14 303 -12 26 -26 47 -33 47 -6 0 -27 -13
-46 -30 -40 -36 -57 -37 -143 -8 -58 19 -90 22 -305 24 l-240 2 -42 46 -41 46
-15 -43z"/>
<path d="M19390 8769 c-391 -41 -744 -169 -1074 -390 -248 -167 -424 -335
-553 -528 -75 -114 -135 -243 -131 -284 l3 -32 264 -3 c175 -1 269 -6 278 -13
7 -6 13 -22 13 -35 0 -44 -71 -246 -195 -554 -142 -351 -189 -455 -218 -475
-18 -12 -75 -15 -327 -15 -220 -1 -311 -4 -327 -13 -12 -7 -38 -33 -58 -59
-20 -27 -42 -48 -49 -48 -13 0 -35 45 -56 113 -17 55 -40 45 -62 -28 -28 -93
-85 -358 -103 -475 -37 -248 -30 -521 19 -714 109 -429 421 -697 916 -788 157
-29 547 -31 718 -5 550 87 1004 321 1407 723 432 433 762 1033 974 1774 80
280 111 468 118 722 10 352 -40 581 -173 796 -47 75 -53 78 -87 35 -10 -13
-26 -23 -36 -23 -9 0 -58 31 -108 69 -197 147 -401 221 -692 251 -119 12 -338
11 -461 -1z m163 -644 c222 -47 337 -229 336 -530 0 -60 -6 -147 -13 -192 -6
-46 -8 -83 -3 -83 12 0 61 56 103 119 66 98 32 91 430 91 l351 0 13 -26 c21
-39 17 -209 -9 -329 -50 -242 -200 -610 -286 -701 l-32 -34 -298 0 c-256 0
-301 -2 -324 -16 -15 -9 -66 -72 -112 -140 -46 -68 -87 -124 -91 -124 -5 0 -8
-7 -8 -15 0 -8 -9 -15 -19 -15 -18 0 -19 7 -18 87 2 62 -2 87 -11 91 -7 2 -17
-9 -22 -25 -47 -134 -193 -406 -293 -545 -30 -42 -53 -79 -49 -82 3 -3 23 -6
44 -6 l38 0 -21 -42 c-78 -153 -318 -376 -504 -468 -119 -58 -210 -80 -355
-87 -151 -6 -241 10 -346 62 -76 37 -139 97 -150 141 -6 22 -2 32 21 50 l28
22 -31 49 c-68 105 -88 226 -72 420 28 333 123 691 313 1173 162 412 325 681
538 886 166 159 326 246 509 277 62 11 280 6 343 -8z"/>
<path d="M23135 8759 c-538 -73 -1114 -398 -1447 -814 -117 -147 -212 -320
-206 -378 l3 -32 264 -3 c180 -1 269 -6 278 -14 26 -22 0 -105 -167 -523 -116
-288 -145 -358 -197 -475 -9 -19 -25 -45 -36 -57 -20 -23 -21 -23 -340 -23
l-320 0 -48 -52 c-27 -29 -49 -56 -49 -60 0 -23 -29 -2 -59 42 -63 92 -65 92
-90 -2 -34 -130 -68 -292 -93 -433 -30 -177 -33 -572 -5 -705 48 -227 129
-390 262 -525 157 -161 325 -245 580 -290 122 -22 383 -30 531 -16 542 50
1161 272 1632 586 102 68 107 73 116 115 14 62 -8 212 -44 311 -24 66 -79 179
-96 198 -2 2 -21 -14 -42 -37 -35 -37 -44 -42 -84 -42 -36 0 -75 -14 -184 -68
-282 -139 -467 -212 -684 -269 -171 -45 -378 -57 -502 -29 -139 31 -276 118
-308 197 -12 28 -11 32 15 59 l28 29 -27 42 c-143 215 -122 594 63 1149 171
513 394 937 613 1166 198 207 385 295 628 297 287 2 438 -110 471 -348 11 -79
2 -210 -21 -310 -5 -22 -7 -41 -5 -43 6 -6 35 17 101 77 l59 54 300 -2 c195
-1 304 -6 312 -13 20 -16 16 -38 -17 -94 -53 -94 -165 -169 -297 -200 -55 -13
-111 -15 -290 -12 l-222 4 -21 -59 c-26 -70 -28 -68 79 -91 316 -67 589 -23
774 126 144 115 235 271 303 518 26 96 28 119 29 275 0 133 -4 184 -18 235
-21 76 -65 174 -109 243 l-31 49 -34 -36 c-37 -39 -48 -39 -103 4 -176 135
-337 208 -563 256 -108 23 -149 26 -367 29 -135 2 -276 -1 -315 -6z"/>
<path d="M7705 7855 c65 -18 191 -44 235 -50 19 -2 44 -6 55 -9 11 -3 58 -12
105 -21 47 -9 135 -27 197 -41 62 -13 129 -27 149 -30 20 -3 46 -8 58 -10 11
-3 32 -7 46 -9 14 -2 36 -7 50 -10 14 -4 41 -9 60 -11 l35 -6 37 106 37 106
-557 -1 c-485 -1 -551 -2 -507 -14z"/>
<path d="M26954 6929 l-72 -40 -32 -82 c-73 -185 -160 -320 -223 -350 -32 -16
-118 -17 -1005 -17 -534 0 -978 -3 -986 -6 -9 -4 -46 -46 -82 -95 -37 -49 -72
-89 -79 -89 -8 0 -17 23 -23 58 -12 66 -28 112 -39 112 -10 0 -489 -1406 -504
-1479 -19 -91 -8 -218 25 -284 54 -112 153 -169 319 -187 123 -13 1721 -13
1857 0 346 33 564 184 716 495 66 137 146 349 132 354 -6 2 -36 -15 -67 -38
-31 -22 -76 -53 -101 -68 l-45 -28 -795 -5 c-437 -3 -815 -2 -839 1 -52 7 -96
49 -88 83 3 12 8 32 11 46 3 14 48 147 101 295 52 149 124 353 158 455 l64
185 704 5 704 5 75 150 c84 166 141 321 170 465 11 52 18 95 17 96 -1 1 -34
-16 -73 -37z"/>
<path d="M16789 6922 c-63 -35 -67 -39 -88 -99 -59 -165 -164 -339 -222 -369
-24 -12 -171 -14 -984 -14 -1079 0 -983 8 -1045 -83 -46 -67 -80 -107 -90
-107 -8 0 -16 22 -37 105 -4 17 -7 37 -7 45 -1 8 -7 15 -15 15 -10 0 -115
-297 -337 -945 -178 -520 -323 -952 -324 -961 0 -14 18 -20 88 -30 119 -19
667 -19 817 0 l110 13 249 732 c137 402 271 795 299 874 l49 142 678 0 677 0
60 118 c34 64 77 159 97 210 62 157 121 393 100 392 -5 -1 -39 -17 -75 -38z"/>
<path d="M6400 6847 c0 -3 -257 -748 -571 -1654 -315 -906 -578 -1675 -585
-1708 -19 -85 -18 -269 2 -336 54 -182 180 -298 399 -366 l90 -27 455 -3 c511
-4 20749 134 20771 141 8 2 475 7 1039 11 564 3 1612 10 2330 15 718 5 1566
10 1885 11 346 1 560 5 530 10 -46 7 -191 15 -1070 54 -181 9 -469 22 -640 30
-170 8 -575 26 -900 40 -620 26 -1045 45 -1560 70 -170 8 -456 21 -635 30
-179 8 -413 20 -520 25 -107 5 -339 17 -515 25 -176 8 -408 20 -515 25 -107 5
-337 17 -510 25 -173 8 -403 20 -510 25 -107 5 -296 14 -420 20 -401 19 -1004
50 -1040 55 -41 5 -13841 668 -14230 684 -296 12 -472 29 -667 66 -595 113
-923 356 -1024 757 -27 107 -36 343 -20 489 29 250 98 529 222 887 44 129 79
235 77 237 -3 3 -80 14 -115 17 -7 1 -13 4 -13 7 0 3 -10 7 -22 7 -22 2 -55 7
-108 18 -49 11 -75 16 -100 22 -14 3 -38 7 -55 9 -16 2 -42 8 -56 14 -15 5
-29 8 -32 5 -3 -3 -31 2 -63 10 -82 21 -125 29 -151 27 -13 0 -23 3 -23 8 0 4
-10 7 -22 6 -13 -1 -38 4 -56 11 -20 8 -30 9 -26 3 4 -8 0 -7 -14 0 -11 6 -31
11 -45 11 -13 0 -27 3 -31 7 -3 4 -12 8 -19 9 -7 1 -43 8 -82 14 -38 7 -78 13
-87 14 -10 0 -18 3 -18 7 0 4 -16 8 -35 8 -57 2 -65 4 -65 12 0 4 -10 7 -22 7
-13 0 -41 3 -63 7 -22 4 -50 8 -62 8 -13 1 -23 5 -23 8 0 3 -6 6 -12 7 -30 3
-75 10 -98 17 -40 10 -74 16 -95 16 -10 0 -24 4 -30 8 -5 5 -33 11 -62 14 -29
3 -57 8 -63 12 -13 8 -100 18 -100 12z"/>
<path d="M3916 6418 c-27 -66 -1060 -3005 -1078 -3068 -23 -80 -25 -225 -4
-292 40 -134 147 -234 313 -295 l64 -23 1026 0 c565 0 1023 4 1017 8 -5 4 -31
14 -59 20 -86 21 -172 71 -230 133 -61 67 -91 137 -105 242 -9 70 -8 87 11
212 8 47 187 570 539 1570 296 842 524 1504 519 1509 -10 11 -59 15 -59 5 0
-3 -7 -6 -15 -6 -8 0 -15 3 -15 6 0 10 -274 6 -289 -3 -9 -6 -12 -5 -8 1 8 12
-164 9 -184 -3 -7 -4 -9 -3 -6 3 7 11 -184 10 -202 -1 -5 -3 -11 0 -14 6 -3
10 -7 10 -19 1 -8 -7 -17 -10 -21 -7 -9 9 -127 10 -127 1 0 -5 -6 -5 -12 -1
-18 11 -108 12 -108 1 0 -4 -6 -5 -12 0 -18 11 -77 12 -115 3 -18 -5 -35 -5
-37 -1 -4 6 -51 6 -66 1 -3 -1 -9 -1 -15 0 -22 5 -437 2 -442 -4 -3 -3 -14 -1
-24 5 -13 7 -19 6 -19 -1 0 -6 -5 -8 -12 -3 -16 9 -78 10 -78 1 0 -4 -11 -3
-25 2 -17 7 -25 6 -25 -1 0 -8 -5 -7 -15 1 -10 9 -15 9 -15 1 0 -6 -5 -11 -11
-11 -5 0 -7 5 -4 10 3 6 3 10 0 10 -3 0 -12 -15 -19 -32z"/>
<path d="M1350 5583 c0 -11 -3 -14 -8 -8 -9 14 -52 17 -52 3 0 -7 -5 -7 -14 1
-11 9 -15 8 -21 -6 -4 -10 -134 -385 -290 -833 -156 -448 -332 -952 -391
-1120 l-108 -305 0 -125 c-1 -122 0 -127 32 -192 43 -88 125 -164 239 -220
l86 -43 1031 -2 1031 -3 -67 23 c-80 28 -167 85 -208 138 -91 114 -121 284
-85 475 8 44 177 550 374 1125 198 576 361 1055 363 1065 2 11 -2 18 -9 16 -7
-1 -13 3 -13 8 0 7 -6 7 -19 0 -14 -7 -22 -7 -27 1 -4 8 -9 7 -15 -2 -5 -8 -9
-9 -9 -3 0 13 -88 13 -109 0 -10 -6 -12 -5 -7 2 5 8 0 12 -13 12 -12 0 -21 -5
-21 -11 0 -6 -7 -3 -16 5 -19 20 -31 21 -15 2 10 -12 7 -14 -16 -12 -15 1 -38
7 -49 14 -12 6 -24 9 -27 5 -3 -3 -19 -6 -35 -8 -16 -1 -35 -5 -41 -9 -6 -4
-11 -2 -11 4 0 7 -6 8 -19 1 -10 -6 -21 -7 -25 -4 -12 12 -116 12 -116 0 0 -8
-3 -7 -9 2 -5 8 -16 11 -25 8 -9 -4 -16 -1 -16 5 0 7 -7 3 -16 -8 -8 -10 -12
-12 -8 -4 7 13 5 13 -8 2 -10 -8 -19 -9 -22 -4 -3 6 -20 7 -40 2 -22 -5 -39
-3 -47 4 -8 7 -10 7 -6 0 4 -7 -5 -11 -23 -11 -16 0 -27 4 -25 8 3 4 -11 7
-31 7 -27 0 -33 -3 -23 -10 10 -6 6 -7 -11 -2 -28 9 -74 9 -108 1 -15 -4 -20
-2 -16 5 5 8 1 9 -12 4 -10 -5 -23 -8 -29 -7 -56 6 -92 5 -104 -4 -11 -7 -13
-7 -7 3 5 8 -1 12 -19 12 -17 0 -24 -4 -19 -12 4 -7 3 -8 -5 -4 -23 14 -64 17
-72 5 -6 -10 -11 -10 -21 -1 -11 9 -17 9 -26 0 -8 -8 -15 -8 -26 1 -14 12 -59
11 -72 -2 -4 -4 -13 -2 -20 4 -8 7 -24 7 -46 1 -20 -5 -43 -5 -57 0 -17 6 -27
5 -33 -4 -6 -10 -8 -10 -8 -1 0 9 -18 12 -59 10 -33 -1 -56 -6 -53 -11 3 -6
-3 -6 -14 -2 -39 16 -66 17 -58 4 6 -10 4 -10 -7 -2 -8 5 -25 10 -39 9 -14 -1
-33 3 -42 7 -14 7 -18 4 -18 -9z"/>
</g>
</svg>
